<?xml version="1.0" encoding="utf-8"?>
<!-- Generator: Adobe Illustrator 28.2.0, SVG Export Plug-In . SVG Version: 6.00 Build 0)  -->
<svg version="1.1" id="Layer_1" xmlns="http://www.w3.org/2000/svg" xmlns:xlink="http://www.w3.org/1999/xlink" x="0px" y="0px"
	 viewBox="0 0 800 800" style="enable-background:new 0 0 800 800;" xml:space="preserve">
<style type="text/css">
	.st0{fill:#304661;}
</style>
<path class="st0" d="M65.2,22h669.7c22.7,0,43.2,20.4,43.2,43.2v669.7c0,22.7-20.4,43.2-43.2,43.2H65.2C42.4,778,22,757.6,22,734.8
	V65.2C22,42.4,42.4,22,65.2,22z M558.9,446.5h104.4l4.5-99.9h-109v-73.8c0-28.4,5.7-44.3,42-44.3h63.6l2.3-93.1
	c0,0-28.4-4.5-69.2-4.5c-99.9,0-144.2,62.4-144.2,129.4v86.3h-73.8v99.9h73.8v277h105.6V446.5z"/>
</svg>
