<?xml version="1.0" encoding="utf-8"?>
<!-- Generator: Adobe Illustrator 28.2.0, SVG Export Plug-In . SVG Version: 6.00 Build 0)  -->
<svg version="1.1" id="Layer_1" xmlns="http://www.w3.org/2000/svg" xmlns:xlink="http://www.w3.org/1999/xlink" x="0px" y="0px"
	 viewBox="0 0 800 800" style="enable-background:new 0 0 800 800;" xml:space="preserve">
<style type="text/css">
	.st0{fill:#304661;}
</style>
<path class="st0" d="M779,76.7v646.5c0,14.8-5.9,29-16.3,39.4C752.2,773.1,738,779,723.3,779H76.7c-14.8,0-29-5.9-39.4-16.3
	C26.9,752.2,21,738,21,723.3V76.7c0-14.8,5.9-29,16.3-39.4C47.8,26.9,62,21,76.7,21h646.5c14.8,0,29,5.9,39.4,16.3
	C773.1,47.8,779,62,779,76.7z M243.9,310.8H132.5v356.7h111.5V310.8z M254,188.2c0.1-8.4-1.5-16.8-4.7-24.6
	c-3.2-7.8-7.9-14.9-13.8-20.9c-5.9-6-13-10.8-20.7-14.1c-7.8-3.3-16.1-5-24.5-5.1h-2c-17.1,0-33.6,6.8-45.7,18.9
	c-12.1,12.1-18.9,28.6-18.9,45.7c0,17.1,6.8,33.6,18.9,45.7c12.1,12.1,28.6,18.9,45.7,18.9c8.4,0.2,16.8-1.2,24.7-4.3
	c7.9-3,15.1-7.6,21.2-13.4c6.1-5.8,11-12.8,14.4-20.5c3.4-7.7,5.3-16,5.5-24.5V188.2z M667.5,450.8c0-107.2-68.2-148.9-136-148.9
	c-22.2-1.1-44.3,3.6-64.1,13.7c-19.8,10.1-36.6,25.2-48.7,43.8h-3.1v-48.6H310.8v356.7h111.5V477.8c-1.6-19.4,4.5-38.7,17-53.7
	c12.5-14.9,30.4-24.3,49.8-26.2h4.2c35.4,0,61.8,22.3,61.8,78.5v191.1h111.5L667.5,450.8z"/>
</svg>
