<?xml version="1.0" encoding="utf-8"?>
<!-- Generator: Adobe Illustrator 28.2.0, SVG Export Plug-In . SVG Version: 6.00 Build 0)  -->
<svg version="1.1" id="Layer_1" xmlns="http://www.w3.org/2000/svg" xmlns:xlink="http://www.w3.org/1999/xlink" x="0px" y="0px"
	 viewBox="0 0 48 48" style="enable-background:new 0 0 48 48;" xml:space="preserve">
<style type="text/css">
	.st0{fill:#304560;}
</style>
<path class="st0" d="M44.2,1.11H3.8c-1.49,0-2.69,1.21-2.69,2.69v40.4c0,1.49,1.21,2.69,2.69,2.69h40.4c1.49,0,2.69-1.21,2.69-2.69
	V3.8C46.89,2.31,45.69,1.11,44.2,1.11z M37.48,19.09H26.93l0.68-3.57h-6.94l-0.68,3.57h-3.34l-1.08,5.6h3.34l-1.48,7.79h5.26h1.68
	h2.93l0.75-4.05h-2.91l0.71-3.73h11.62v10.51c0,1.31-1.06,2.37-2.37,2.37H12.89c-1.31,0-2.37-1.06-2.37-2.37V12.79
	c0-1.31,1.06-2.37,2.37-2.37h22.21c1.31,0,2.37,1.06,2.37,2.37V19.09z"/>
</svg>
