<?xml version="1.0" encoding="utf-8"?>
<!-- Generator: Adobe Illustrator 28.2.0, SVG Export Plug-In . SVG Version: 6.00 Build 0)  -->
<svg version="1.1" id="Layer_1" xmlns="http://www.w3.org/2000/svg" xmlns:xlink="http://www.w3.org/1999/xlink" x="0px" y="0px"
	 viewBox="0 0 800 800" style="enable-background:new 0 0 800 800;" xml:space="preserve">
<style type="text/css">
	.st0{fill:#304661;}
	.st1{fill-rule:evenodd;clip-rule:evenodd;fill:#304661;}
</style>
<path class="st0" d="M294.6,414.8c-3.7,5.5-5.6,11.9-5.6,18.5c0,4.4,0.9,8.7,2.5,12.8c1.7,4,4.1,7.7,7.2,10.8
	c3.1,3.1,6.8,5.5,10.8,7.2c4,1.7,8.4,2.5,12.8,2.5c6.6,0,13-2,18.5-5.6c5.5-3.7,9.8-8.9,12.3-15c2.5-6.1,3.2-12.8,1.9-19.3
	c-1.3-6.5-4.5-12.4-9.1-17.1c-4.7-4.7-10.6-7.8-17.1-9.1c-6.5-1.3-13.2-0.6-19.3,1.9C303.5,405.1,298.3,409.3,294.6,414.8z"/>
<path class="st0" d="M400.3,550.7c29.6,1.2,58.7-7.8,82.3-25.7v1.3c0.9-0.9,1.6-1.9,2.1-3c0.5-1.1,0.7-2.3,0.8-3.6
	c0-1.2-0.2-2.4-0.7-3.6c-0.5-1.1-1.1-2.2-2-3c-0.9-0.9-1.9-1.6-3-2.1c-1.1-0.5-2.3-0.7-3.6-0.8c-2.5,0-4.9,0.9-6.6,2.6
	c-20.2,14.5-44.8,21.7-69.7,20.3c-24.8,1.1-49.3-6.3-69.3-21c-1.7-1.4-3.9-2.1-6.2-2c-2.2,0.1-4.3,1-5.9,2.6
	c-1.6,1.6-2.5,3.7-2.6,5.9c-0.1,2.2,0.6,4.4,2,6.2C341.6,542.8,370.7,551.9,400.3,550.7z"/>
<path class="st0" d="M458.1,462.4c5.5,3.7,11.9,5.6,18.5,5.6l-0.3,1.3c4.5,0.1,9-0.8,13.2-2.6c4.2-1.7,8-4.3,11.1-7.5
	c3.1-3.2,5.6-7.1,7.2-11.3c1.6-4.2,2.4-8.7,2.2-13.2c0-6.6-2-13-5.6-18.5c-3.7-5.5-8.9-9.8-15-12.3c-6.1-2.5-12.8-3.2-19.3-1.9
	c-6.5,1.3-12.4,4.5-17.1,9.1c-4.7,4.7-7.8,10.6-9.1,17.1c-1.3,6.5-0.6,13.2,1.9,19.3C448.4,453.5,452.7,458.7,458.1,462.4z"/>
<path class="st1" d="M779,400c0,209.3-169.7,379-379,379C190.7,779,21,609.3,21,400C21,190.7,190.7,21,400,21
	C609.3,21,779,190.7,779,400z M642.8,370.3c6.1,8.7,9.6,19.1,10,29.7c0.2,10.4-2.6,20.7-8.1,29.6c-5.4,8.9-13.3,16.1-22.6,20.8
	c0.4,5.6,0.4,11.1,0,16.7c0,84.9-98.9,153.9-221,153.9c-122,0-221-69-221-153.9c-0.4-5.5-0.4-11.1,0-16.7c-7.3-3.4-13.8-8.2-19-14.3
	c-5.2-6.1-9-13.3-11.2-21c-2.2-7.7-2.6-15.8-1.4-23.7c1.3-7.9,4.3-15.5,8.7-22.1c4.5-6.7,10.4-12.3,17.2-16.4
	c6.9-4.2,14.5-6.8,22.5-7.7c8-0.9,16,0,23.7,2.5c7.6,2.5,14.6,6.7,20.4,12.2c43.7-29.6,95-45.8,147.8-46.6l28-131.5
	c0.3-1.5,0.9-3,1.8-4.3c0.9-1.3,2-2.4,3.3-3.2c1.3-0.8,2.8-1.4,4.3-1.7c1.5-0.3,3.1-0.2,4.6,0.1l92.9,18.6
	c4.5-7.8,11.7-13.7,20.2-16.7c8.5-3,17.8-2.8,26.2,0.4c8.4,3.2,15.4,9.4,19.7,17.3c4.3,7.9,5.6,17.1,3.7,25.9
	c-1.9,8.8-6.8,16.7-14,22.2c-7.2,5.5-16,8.2-25,7.8c-9-0.5-17.5-4.1-24.1-10.3c-6.5-6.2-10.7-14.5-11.6-23.5l-81.1-17.1l-24.6,118.2
	c52.1,1.1,102.8,17.3,145.9,46.6c7.7-7.4,17.4-12.4,27.9-14.4c10.5-2,21.3-1,31.2,3C628.2,354.7,636.7,361.5,642.8,370.3z"/>
</svg>
