<?xml version="1.0" encoding="utf-8"?>
<!-- Generator: Adobe Illustrator 28.2.0, SVG Export Plug-In . SVG Version: 6.00 Build 0)  -->
<svg version="1.1" id="Layer_1" xmlns="http://www.w3.org/2000/svg" xmlns:xlink="http://www.w3.org/1999/xlink" x="0px" y="0px"
	 viewBox="0 0 800 800" style="enable-background:new 0 0 800 800;" xml:space="preserve">
<style type="text/css">
	.st0{fill:#304661;}
</style>
<path class="st0" d="M583.7,140.3c-27.7-31.8-44.4-73.2-44.4-118.5h-34.7C513.5,71.3,542.9,113.8,583.7,140.3z"/>
<path class="st0" d="M262.2,396.4c-60.2,0-109.1,49-109.1,109.2c0,42,23.9,78.5,58.6,96.8c-13-17.9-20.7-39.9-20.7-63.8
	c0-60.2,49-109.2,109.2-109.2c11.2,0,22.1,1.9,32.3,5.1V301.7c-10.5-1.4-21.2-2.3-32.3-2.3c-1.9,0-3.7,0.2-5.6,0.2v101.9
	C284.1,398.3,273.4,396.4,262.2,396.4z"/>
<path class="st0" d="M682.1,198.6v101c-67.4,0-129.9-21.6-180.7-58.1v264.3c0,131.9-107.2,239.4-239.2,239.4
	c-50.9,0-98.3-16.2-137.1-43.4c43.7,46.9,106,76.4,175,76.4c131.8,0,239.2-107.3,239.2-239.4V274.5c50.9,36.5,113.4,58.1,180.7,58.1
	v-130C706.8,202.7,694.2,201.3,682.1,198.6z"/>
<path class="st0" d="M501.3,505.8V241.5c50.9,36.5,113.4,58.1,180.7,58.1v-101c-39-8.3-73.2-29.3-98.4-58.3
	c-40.7-26.5-70-69-79.3-118.5h-95.1L409,542.9c-2.1,58.3-50.2,105.2-109,105.2c-36.5,0-68.6-18.1-88.6-45.5
	c-34.7-18.4-58.6-54.8-58.6-96.8c0-60.2,49-109.2,109.1-109.2c11.2,0,22.1,1.9,32.3,5.1V299.8c-129.2,2.8-233.4,108.9-233.4,239
	c0,62.9,24.4,120.1,64.2,163c38.8,27.2,86.2,43.4,137.1,43.4C394,745.2,501.3,637.7,501.3,505.8z"/>
</svg>
