<?xml version="1.0" encoding="utf-8"?>
<!-- Generator: Adobe Illustrator 28.2.0, SVG Export Plug-In . SVG Version: 6.00 Build 0)  -->
<svg version="1.1" id="Layer_1" xmlns="http://www.w3.org/2000/svg" xmlns:xlink="http://www.w3.org/1999/xlink" x="0px" y="0px"
	 viewBox="0 0 800 800" style="enable-background:new 0 0 800 800;" xml:space="preserve">
<style type="text/css">
	.st0{fill-rule:evenodd;clip-rule:evenodd;fill:#304661;}
</style>
<path class="st0" d="M696.1,140.5c32.6,8.7,58.3,34.4,67,67C778.9,266.7,779,390,779,390s0,123.4-15.8,182.4
	c-8.7,32.6-34.4,58.3-67,67C637,655.3,400,655.3,400,655.3s-237,0-296.1-15.8c-32.6-8.7-58.3-34.4-67-67C21,513.4,21,390,21,390
	s0-123.4,15.8-182.5c8.7-32.6,34.4-58.3,67-67C163,124.7,400,124.7,400,124.7S637,124.7,696.1,140.5z M521.1,390L324.1,503.7V276.3
	L521.1,390z"/>
</svg>
